<svg id="_1" data-name="1" xmlns="http://www.w3.org/2000/svg" viewBox="0 0 98.56478 69.19969"><defs><style>.cls-1,.cls-3,.cls-4{fill:#62c4b4;}.cls-1{stroke:#62c4b4;stroke-width:0.5669px;}.cls-1,.cls-2{stroke-miterlimit:22.9256;}.cls-1,.cls-2,.cls-3{fill-rule:evenodd;}.cls-2{fill:none;stroke:#fff;stroke-width:2.126px;}</style></defs><title>logo</title><path class="cls-1" d="M233.84149,561.4177q29.40165-1.0944,39.6582-19.6925,6.83745,48.82065-55.2479,67.5555,31.5897-22.7289,15.5897-47.863Zm-8.4787,48.1363q57.61335,2.05755,88.8891-41.4264-19.4787,11.52285-40.0549,4.3898Q260.754,598.99225,225.36279,609.554Z" transform="translate(-216.70713 -540.8432)"/><path class="cls-2" d="M248.48159,565.5353q2.87055,17.84085-8.4764,29.3933" transform="translate(-216.70713 -540.8432)"/><path class="cls-2" d="M262.563,561.0237a33.53956,33.53956,0,0,1-5.7418,19.8235" transform="translate(-216.70713 -540.8432)"/><path class="cls-2" d="M280.88249,579.3435q-3.48615,10.0482-28.0262,23.1043" transform="translate(-216.70713 -540.8432)"/><path class="cls-2" d="M292.91329,580.1635q-2.95815,5.72235-12.7142,12.0308" transform="translate(-216.70713 -540.8432)"/><path class="cls-3" d="M278.09659,566.5601l1.5324.4325q1.3644.38565,1.0613,1.4613a1.10991,1.10991,0,0,1-.7172.7534,1.0966,1.0966,0,0,1,.3796,1.2416,1.20251,1.20251,0,0,1-.6599.8107,1.1821,1.1821,0,0,1-.4819.1103,2.29,2.29,0,0,1-.6177-.1035l-.2389-.0674.3061-1.0843.2137.0604a.55033.55033,0,0,0,.281.0269.19068.19068,0,0,0,.1252-.1485c.0389-.1375-.0476-.2359-.2579-.2951l-.2421-.0683.3183-1.1268c.2328.0658.3714.0184.4162-.14.0416-.1469-.0425-.2495-.2529-.309l-.2302-.0649-.8739,3.094-1.2554-.3546Z" transform="translate(-216.70713 -540.8432)"/><rect class="cls-4" x="281.04494" y="569.36287" width="4.3945" height="1.30442" transform="translate(-542.35572 214.63169) rotate(-80.5171)"/><path class="cls-3" d="M286.01689,572.6889l.0706-3.1658a1.33168,1.33168,0,0,1,.3781-.9524,1.22726,1.22726,0,0,1,.9349-.3518,1.14519,1.14519,0,0,1,1.0244.6415,1.44214,1.44214,0,0,1,.487-.4646,1.26624,1.26624,0,0,1,.6313-.129,1.12627,1.12627,0,0,1,.9005.3926,1.623,1.623,0,0,1,.2912,1.0806l-.0681,3.0529-1.3042-.0292.0638-2.8576a.7092.7092,0,0,0-.0281-.2761.14071.14071,0,0,0-.1377-.0712c-.1307-.0028-.1976.1032-.2024.3172l-.0644,2.8795-1.3042-.0292.0638-2.8574a.71525.71525,0,0,0-.0289-.2752.14243.14243,0,0,0-.1381-.0723q-.1938-.0042-.2018.3393l-.0638,2.8573Z" transform="translate(-216.70713 -540.8432)"/><path class="cls-3" d="M294.49219,570.2635l.142,1.1512-.3728.0459.1279,1.0395-1.2943.1593-.3416-2.7734a1.709,1.709,0,0,1,.2855-1.3017,1.67061,1.67061,0,0,1,1.1809-.597,1.474,1.474,0,0,1,1.1854.2633,1.81479,1.81479,0,0,1,.5202,1.1994l.3472,2.8182-1.2946.1593-.3367-2.732a.71.71,0,0,0-.1038-.341.24308.24308,0,0,0-.2321-.0701q-.30705.038-.2526.4836l.0666.5414Z" transform="translate(-216.70713 -540.8432)"/><path class="cls-3" d="M299.17019,568.3703l.8427,3.1028-1.2588.3418-1.1517-4.2406,1.6134-.4382a1.7113,1.7113,0,0,1,1.2442.0555,1.42576,1.42576,0,0,1,.4711,2.1569l1.1999,1.5491-1.3224.3592-.9819-1.1985-.2959-1.0894.0995-.0272q.39585-.1071.303-.4518-.0825-.30405-.5417-.1797Z" transform="translate(-216.70713 -540.8432)"/><path class="cls-3" d="M305.37639,566.8424l.3586.9068-.7895.3121a.43406.43406,0,0,0-.2086.138.20207.20207,0,0,0-.0029.19c.0343.0867.0791.134.1361.1434a.66943.66943,0,0,0,.2957-.07l.8158-.3226.4603,1.1642-.9524.3767a1.60972,1.60972,0,0,1-1.158.0873,1.27561,1.27561,0,0,1-.7237-.7872l-.6329-1.601a1.30017,1.30017,0,0,1-.0244-1.0462,1.41846,1.41846,0,0,1,.8215-.6991l1.0539-.4169.4652,1.1763-.7739.3062c-.2075.0822-.2835.191-.2299.3268a.194.194,0,0,0,.1392.1366.56722.56722,0,0,0,.2818-.0572Z" transform="translate(-216.70713 -540.8432)"/><path class="cls-3" d="M308.52,563.4275l.5743,1.1146a.86062.86062,0,0,0-.2134.0629.33984.33984,0,0,0-.1761.2143.36251.36251,0,0,0,.0258.2832.71376.71376,0,0,0,.2565.2432l.1681.1086a1.80418,1.80418,0,0,1,.6568.682,1.45166,1.45166,0,0,1,.091,1.171,1.53955,1.53955,0,0,1-.7866.9042,1.44042,1.44042,0,0,1-.6228.1554l-.5825-1.1299a.6359.6359,0,0,0,.3504-.0448.42733.42733,0,0,0,.2089-.2177.3166.3166,0,0,0-.0116-.2719,1.2558,1.2558,0,0,0-.3546-.2902,2.07541,2.07541,0,0,1-.7319-.7818,1.46792,1.46792,0,0,1-.0964-1.1532,1.42818,1.42818,0,0,1,.7333-.8832A1.67972,1.67972,0,0,1,308.52,563.4275Z" transform="translate(-216.70713 -540.8432)"/></svg>